<svg width="148" height="34" viewBox="0 0 148 34" fill="none" xmlns="http://www.w3.org/2000/svg">
<g clip-path="url(#clip0_662_2903)">
<path d="M23.802 2.40509L3.62398 6.82882L0 18.701L8.19795 28.1408L14.4061 26.7784L16.205 33.595L24.3945 24.8227L28.376 23.7217L32 11.8449L23.802 2.40509Z" fill="#E8344E"/>
<path d="M23.3568 12.1266V13.2389H24.4181V14.3511H25.4795V15.4634H26.5399V16.5757H25.4795V17.688H24.4181V18.8003H23.3577V19.9125H21.2359V18.8003H22.2963V17.688H23.3568V16.5757H24.4181V15.4634H23.3577V14.3502H22.2973V13.2379H21.2368V12.1266H23.3568Z" fill="white"/>
<path d="M19.8806 12.3232H18.0303V13.3969H16.9848V14.4885H15.9955V15.5613H14.9501V16.6538H13.9598V17.7266H12.9144V18.8192H11.9241V19.9107H13.7754V18.8192H14.7647V17.7454H15.8102V16.6538H16.7995V15.581H17.8459V14.4885H18.8352V13.4157H19.8806V12.3232Z" fill="white"/>
<path d="M8.44898 20.0094V18.8971H7.38761V17.7849H6.32625V16.6726H5.26582V15.5603H6.32625V14.448H7.38761V13.3357H8.44804V12.2253H10.5698V13.3376H9.5094V14.4499H8.44898V15.5622H7.38761V16.6745H8.44804V17.7867H9.50847V18.899H10.5689V20.0113H8.44898V20.0094Z" fill="white"/>
</g>
<path d="M62.676 6.4V9.396H54.584V9.788L63.292 11.888L62.62 14.772L52.316 12.476L42.012 15.08L41.144 12.056L49.992 9.788V9.396H41.732V6.4H49.908V4.3H54.64V6.4H62.676ZM39.772 18.608V15.668H64.692V18.608H39.772ZM41.48 23.788C41.48 21.464 42.796 19.504 51.504 19.504H53.24C61.864 19.504 63.236 21.548 63.236 23.788C63.236 26.112 61.78 28.072 53.24 28.072H51.504C42.964 28.072 41.48 26.112 41.48 23.788ZM45.54 23.788C45.54 24.488 46.632 24.936 51.812 24.936H52.932C57.86 24.936 59.176 24.516 59.176 23.788C59.176 23.088 58.28 22.64 52.932 22.64H51.812C46.716 22.64 45.54 23.088 45.54 23.788ZM93.28 10.964V14.492H89.528V20.232L85.608 21.268V5.56H89.528V10.964H93.28ZM82.976 5.84L80.484 19.028H76.508L78.356 8.78H66.568V5.84H82.976ZM68.528 27.344V18.804H72.728V24.404H90.452V27.344H68.528Z" fill="#E8344E"/>
<path d="M106.664 12.812L97.424 20.064L95.044 17.18L104.34 9.816V5.924H108.876V9.732L118.284 16.872L116.184 19.588L106.664 12.812ZM94.148 26.28V23.312H104.592V17.684H108.596V23.312H119.012V26.28H94.148ZM143.988 9.172V11.524H127.3V12.728H144.184V15.416H135.868V16.676H146.172V19.532H121.252V16.676H131.668V15.416H123.38V5.308H144.016V7.996H127.3V9.172H143.988ZM144.688 24.208C144.688 25.468 144.212 26.7 142.224 27.372C140.824 27.848 137.828 28.044 135.532 28.044H132.088C129.792 28.044 126.796 27.848 125.396 27.372C123.408 26.7 122.932 25.468 122.932 24.208C122.932 22.948 123.408 21.716 125.396 21.044C126.796 20.568 129.792 20.372 132.088 20.372H135.532C137.828 20.372 140.824 20.568 142.224 21.044C144.212 21.716 144.688 22.948 144.688 24.208ZM126.992 24.208C126.992 24.908 127.776 24.964 132.872 24.964H134.748C139.844 24.964 140.628 24.908 140.628 24.208C140.628 23.508 139.844 23.452 134.748 23.452H132.872C127.776 23.452 126.992 23.508 126.992 24.208Z" fill="#FF8026"/>
<defs>
<clipPath id="clip0_662_2903">
<rect width="32" height="32" fill="white" transform="translate(0 2)"/>
</clipPath>
</defs>
</svg>
